{"title":"Zero.Dark.Thirty.2012.DVDSCR.XViD-TiCKLE.TiME","uid":7987364,"size":1564904308,"categoryP":"video","categoryS":"movies","magnet":"?xt=urn:btih:34046bbed208930b8c46a174e292582e969eccf4&amp;dn=Zero.Dark.Thirty.2012.DVDSCR.XViD-TiCKLE.TiME&amp;tr=udp%3A%2F%2Ftracker.openbittorrent.com%3A80&amp;tr=udp%3A%2F%2Fopen.demonii.com%3A1337&amp;tr=udp%3A%2F%2Ftracker.coppersurfer.tk%3A6969&amp;tr=udp%3A%2F%2Fexodus.desync.com%3A6969","seeders":2,"leechers":0,"uploader":"xxxlavalxxx","files":3,"time":1357316904,"description":" &lt;a href=&quot;\nhttp://www.shotpix.com/images/31340706970470037933.jpg&quot; rel=&quot;nofollow&quot; target=&quot;_NEW&quot;&gt;\nhttp://www.shotpix.com/images/31340706970470037933.jpg&lt;/a&gt;\n\n\n &lt;a href=&quot;\nhttp://www.imdb.com/title/tt1790885/&quot; rel=&quot;nofollow&quot; target=&quot;_NEW&quot;&gt;\nhttp://www.imdb.com/title/tt1790885/&lt;/a&gt;\n\n\nPlot: A chronicle of the decade-long hunt for al-Qaeda terrorist leader Osama bin Laden after the September 2001 attacks, and his death at the hands of the Navy S.E.A.L. Team 6 in May, 2011.\n \n\n\nDirector: \nKathryn Bigelow\n\n Writer: \nMark Boal (screenplay)\n \nStars:\n Jessica Chastain, Joel Edgerton and Chris Pratt\n\nGenres:\n Action | Drama | History | Thriller \n\nFormat                                   : AVI\nFormat/Info                              : Audio Video Interleave\nFile size                                : 1.45 GiB\nDuration                                 : 2h 36mn\nOverall bit rate                         : 1 326 Kbps\nWriting application                      : VirtualDubMod 1.5.10.3 | www.virtualdub-fr.org || (build 2550/release)\nWriting library                          : VirtualDubMod build 2550/release\n\nVideo\nID                                       : 0\nFormat                                   : MPEG-4 Visual\nFormat profile                           : Advanced Simple@L5\nFormat settings, BVOP                    : 2\nFormat settings, QPel                    : No\nFormat settings, GMC                     : No warppoints\nFormat settings, Matrix                  : Default (H.263)\nMuxing mode                              : Packed bitstream\nCodec ID                                 : XVID\nCodec ID/Hint                            : XviD\nDuration                                 : 2h 36mn\nBit rate                                 : 1 122 Kbps\nWidth                                    : 720 pixels\nHeight                                   : 384 pixels\nDisplay aspect ratio                     : 1.85:1\nFrame rate                               : 29.970 fps\nColor space                              : YUV\nChroma subsampling                       : 4:2:0\nBit depth                                : 8 bits\nScan type                                : Progressive\nCompression mode                         : Lossy\nBits/(Pixel*Frame)                       : 0.135\nStream size                              : 1.23 GiB (85%)\nWriting library                          : XviD 64\n\nAudio\nID                                       : 1\nFormat                                   : AC-3\nFormat/Info                              : Audio Coding 3\nMode extension                           : CM (complete main)\nFormat settings, Endianness              : Big\nCodec ID                                 : 2000\nDuration                                 : 2h 36mn\nBit rate mode                            : Constant\nBit rate                                 : 192 Kbps\nChannel(s)                               : 2 channels\nChannel positions                        : Front: L R\nSampling rate                            : 48.0 KHz\nBit depth                                : 16 bits\nCompression mode                         : Lossy\nStream size                              : 216 MiB (14%)\nAlignment                                : Split accross interleaves\nInterleave, duration                     : 33 ms (1.00 video frame)\nInterleave, preload duration             : 500 ms\n\n\n &lt;a href=&quot;\nhttp://www.shotpix.com/images/63275112888398918839.png&quot; rel=&quot;nofollow&quot; target=&quot;_NEW&quot;&gt;\nhttp://www.shotpix.com/images/63275112888398918839.png&lt;/a&gt; &lt;a href=&quot;\nhttp://www.shotpix.com/images/25119560655311095126.png&quot; rel=&quot;nofollow&quot; target=&quot;_NEW&quot;&gt;\nhttp://www.shotpix.com/images/25119560655311095126.png&lt;/a&gt; &lt;a href=&quot;\nhttp://www.shotpix.com/images/83924377416744836763.png&quot; rel=&quot;nofollow&quot; target=&quot;_NEW&quot;&gt;\nhttp://www.shotpix.com/images/83924377416744836763.png&lt;/a&gt; &lt;a href=&quot;\nhttp://www.shotpix.com/images/34585385308097474507.png&quot; rel=&quot;nofollow&quot; target=&quot;_NEW&quot;&gt;\nhttp://www.shotpix.com/images/34585385308097474507.png&lt;/a&gt;","torrent":{"xt":"urn:btih:34046bbed208930b8c46a174e292582e969eccf4","amp;dn":"Zero.Dark.Thirty.2012.DVDSCR.XViD-TiCKLE.TiME","amp;tr":["udp%3A%2F%2Ftracker.openbittorrent.com%3A80","udp%3A%2F%2Fopen.demonii.com%3A1337","udp%3A%2F%2Ftracker.coppersurfer.tk%3A6969","udp%3A%2F%2Fexodus.desync.com%3A6969"],"infoHash":"34046bbed208930b8c46a174e292582e969eccf4","infoHashBuffer":{"type":"Buffer","data":[52,4,107,190,210,8,147,11,140,70,161,116,226,146,88,46,150,158,204,244]},"announce":[],"urlList":[]}}